{
	"asset":{
		"generator":"Khronos glTF Blender I/O v3.6.28",
		"version":"2.0"
	},
	"scene":0,
	"scenes":[
		{
			"name":"Scene",
			"nodes":[
				2
			]
		}
	],
	"nodes":[
		{
			"mesh":0,
			"name":"AnimCube"
		},
		{
			"children":[
				0
			],
			"name":"OffsetDummy",
			"translation":[
				0,
				2.2546913623809814,
				0
			]
		},
		{
			"children":[
				1
			],
			"mesh":1,
			"name":"MovingCube"
		}
	],
	"animations":[
		{
			"channels":[
				{
					"sampler":0,
					"target":{
						"node":2,
						"path":"translation"
					}
				}
			],
			"name":"MovingCubeTudaSuda",
			"samplers":[
				{
					"input":7,
					"interpolation":"LINEAR",
					"output":8
				}
			]
		},
		{
			"channels":[
				{
					"sampler":0,
					"target":{
						"node":2,
						"path":"translation"
					}
				},
				{
					"sampler":1,
					"target":{
						"node":2,
						"path":"rotation"
					}
				},
				{
					"sampler":2,
					"target":{
						"node":2,
						"path":"scale"
					}
				},
				{
					"sampler":3,
					"target":{
						"node":0,
						"path":"translation"
					}
				},
				{
					"sampler":4,
					"target":{
						"node":0,
						"path":"rotation"
					}
				},
				{
					"sampler":5,
					"target":{
						"node":0,
						"path":"scale"
					}
				}
			],
			"name":"track_with_translation",
			"samplers":[
				{
					"input":9,
					"interpolation":"LINEAR",
					"output":10
				},
				{
					"input":9,
					"interpolation":"LINEAR",
					"output":11
				},
				{
					"input":9,
					"interpolation":"LINEAR",
					"output":12
				},
				{
					"input":9,
					"interpolation":"LINEAR",
					"output":13
				},
				{
					"input":9,
					"interpolation":"LINEAR",
					"output":14
				},
				{
					"input":9,
					"interpolation":"LINEAR",
					"output":15
				}
			]
		},
		{
			"channels":[
				{
					"sampler":0,
					"target":{
						"node":0,
						"path":"translation"
					}
				},
				{
					"sampler":1,
					"target":{
						"node":0,
						"path":"rotation"
					}
				},
				{
					"sampler":2,
					"target":{
						"node":0,
						"path":"scale"
					}
				}
			],
			"name":"animation_AnimatedCube",
			"samplers":[
				{
					"input":9,
					"interpolation":"LINEAR",
					"output":16
				},
				{
					"input":9,
					"interpolation":"LINEAR",
					"output":17
				},
				{
					"input":9,
					"interpolation":"LINEAR",
					"output":18
				}
			]
		}
	],
	"materials":[
		{
			"name":"AnimatedCube",
			"pbrMetallicRoughness":{
				"baseColorTexture":{
					"index":0
				},
				"metallicRoughnessTexture":{
					"index":1
				}
			}
		},
		{
			"name":"AnimatedCube.001",
			"pbrMetallicRoughness":{
				"baseColorTexture":{
					"index":2
				},
				"metallicRoughnessTexture":{
					"index":3
				}
			}
		}
	],
	"meshes":[
		{
			"name":"AnimatedCube",
			"primitives":[
				{
					"attributes":{
						"POSITION":0,
						"NORMAL":1,
						"TEXCOORD_0":2
					},
					"indices":3,
					"material":0
				}
			]
		},
		{
			"name":"AnimatedCubeTudaSuda",
			"primitives":[
				{
					"attributes":{
						"POSITION":4,
						"NORMAL":5,
						"TEXCOORD_0":6
					},
					"indices":3,
					"material":1
				}
			]
		}
	],
	"textures":[
		{
			"sampler":0,
			"source":0
		},
		{
			"sampler":0,
			"source":1
		},
		{
			"sampler":0,
			"source":0
		},
		{
			"sampler":0,
			"source":1
		}
	],
	"images":[
		{
			"mimeType":"image/png",
			"name":"AnimatedCube_BaseColor",
			"uri":"AnimatedCube_BaseColor.png"
		},
		{
			"mimeType":"image/png",
			"name":"AnimatedCube_MetallicRoughness",
			"uri":"AnimatedCube_MetallicRoughness.png"
		}
	],
	"accessors":[
		{
			"bufferView":0,
			"componentType":5126,
			"count":36,
			"max":[
				1,
				1,
				1.0000009536743164
			],
			"min":[
				-1,
				-1,
				-1
			],
			"type":"VEC3"
		},
		{
			"bufferView":1,
			"componentType":5126,
			"count":36,
			"type":"VEC3"
		},
		{
			"bufferView":2,
			"componentType":5126,
			"count":36,
			"type":"VEC2"
		},
		{
			"bufferView":3,
			"componentType":5123,
			"count":36,
			"type":"SCALAR"
		},
		{
			"bufferView":4,
			"componentType":5126,
			"count":36,
			"max":[
				1,
				1,
				1.0000009536743164
			],
			"min":[
				-1,
				-1,
				-1
			],
			"type":"VEC3"
		},
		{
			"bufferView":5,
			"componentType":5126,
			"count":36,
			"type":"VEC3"
		},
		{
			"bufferView":6,
			"componentType":5126,
			"count":36,
			"type":"VEC2"
		},
		{
			"bufferView":7,
			"componentType":5126,
			"count":50,
			"max":[
				2.0833333333333335
			],
			"min":[
				0.041666666666666664
			],
			"type":"SCALAR"
		},
		{
			"bufferView":8,
			"componentType":5126,
			"count":50,
			"type":"VEC3"
		},
		{
			"bufferView":9,
			"componentType":5126,
			"count":49,
			"max":[
				2
			],
			"min":[
				0
			],
			"type":"SCALAR"
		},
		{
			"bufferView":10,
			"componentType":5126,
			"count":49,
			"type":"VEC3"
		},
		{
			"bufferView":11,
			"componentType":5126,
			"count":49,
			"type":"VEC4"
		},
		{
			"bufferView":12,
			"componentType":5126,
			"count":49,
			"type":"VEC3"
		},
		{
			"bufferView":13,
			"componentType":5126,
			"count":49,
			"type":"VEC3"
		},
		{
			"bufferView":14,
			"componentType":5126,
			"count":49,
			"type":"VEC4"
		},
		{
			"bufferView":15,
			"componentType":5126,
			"count":49,
			"type":"VEC3"
		},
		{
			"bufferView":16,
			"componentType":5126,
			"count":49,
			"type":"VEC3"
		},
		{
			"bufferView":17,
			"componentType":5126,
			"count":49,
			"type":"VEC4"
		},
		{
			"bufferView":18,
			"componentType":5126,
			"count":49,
			"type":"VEC3"
		}
	],
	"bufferViews":[
		{
			"buffer":0,
			"byteLength":432,
			"byteOffset":0,
			"target":34962
		},
		{
			"buffer":0,
			"byteLength":432,
			"byteOffset":432,
			"target":34962
		},
		{
			"buffer":0,
			"byteLength":288,
			"byteOffset":864,
			"target":34962
		},
		{
			"buffer":0,
			"byteLength":72,
			"byteOffset":1152,
			"target":34963
		},
		{
			"buffer":0,
			"byteLength":432,
			"byteOffset":1224,
			"target":34962
		},
		{
			"buffer":0,
			"byteLength":432,
			"byteOffset":1656,
			"target":34962
		},
		{
			"buffer":0,
			"byteLength":288,
			"byteOffset":2088,
			"target":34962
		},
		{
			"buffer":0,
			"byteLength":200,
			"byteOffset":2376
		},
		{
			"buffer":0,
			"byteLength":600,
			"byteOffset":2576
		},
		{
			"buffer":0,
			"byteLength":196,
			"byteOffset":3176
		},
		{
			"buffer":0,
			"byteLength":588,
			"byteOffset":3372
		},
		{
			"buffer":0,
			"byteLength":784,
			"byteOffset":3960
		},
		{
			"buffer":0,
			"byteLength":588,
			"byteOffset":4744
		},
		{
			"buffer":0,
			"byteLength":588,
			"byteOffset":5332
		},
		{
			"buffer":0,
			"byteLength":784,
			"byteOffset":5920
		},
		{
			"buffer":0,
			"byteLength":588,
			"byteOffset":6704
		},
		{
			"buffer":0,
			"byteLength":588,
			"byteOffset":7292
		},
		{
			"buffer":0,
			"byteLength":784,
			"byteOffset":7880
		},
		{
			"buffer":0,
			"byteLength":588,
			"byteOffset":8664
		}
	],
	"samplers":[
		{
			"magFilter":9729,
			"minFilter":9987
		}
	],
	"buffers":[
		{
			"byteLength":9252,
			"uri":"AnimatedCubes.bin"
		}
	]
}
