{
	"accessors": [
		{
			"bufferView": 0,
			"byteOffset": 0,
			"componentType": 5126,
			"count": 24,
			"max": [
				5.0,
				5.0,
				0.05000000074505806
			],
			"min": [
				-5.0,
				-5.0,
				-0.05000000074505806
			],
			"type": "VEC3"
		},
		{
			"bufferView": 1,
			"byteOffset": 0,
			"componentType": 5126,
			"count": 24,
			"type": "VEC3"
		},
		{
			"bufferView": 2,
			"byteOffset": 0,
			"componentType": 5126,
			"count": 24,
			"type": "VEC2"
		},
		{
			"bufferView": 3,
			"byteOffset": 0,
			"componentType": 5125,
			"count": 36,
			"type": "SCALAR"
		},
		{
			"bufferView": 4,
			"byteOffset": 0,
			"componentType": 5126,
			"count": 24,
			"max": [
				5.0,
				0.05000000074505806,
				5.0
			],
			"min": [
				-5.0,
				-0.05000000074505806,
				-5.0
			],
			"type": "VEC3"
		},
		{
			"bufferView": 5,
			"byteOffset": 0,
			"componentType": 5126,
			"count": 24,
			"type": "VEC3"
		},
		{
			"bufferView": 6,
			"byteOffset": 0,
			"componentType": 5126,
			"count": 24,
			"type": "VEC2"
		},
		{
			"bufferView": 7,
			"byteOffset": 0,
			"componentType": 5125,
			"count": 36,
			"type": "SCALAR"
		},
		{
			"bufferView": 8,
			"byteOffset": 0,
			"componentType": 5126,
			"count": 24,
			"max": [
				0.05000000074505806,
				5.0,
				5.0
			],
			"min": [
				-0.05000000074505806,
				-5.0,
				-5.0
			],
			"type": "VEC3"
		},
		{
			"bufferView": 9,
			"byteOffset": 0,
			"componentType": 5126,
			"count": 24,
			"type": "VEC3"
		},
		{
			"bufferView": 10,
			"byteOffset": 0,
			"componentType": 5126,
			"count": 24,
			"type": "VEC2"
		},
		{
			"bufferView": 11,
			"byteOffset": 0,
			"componentType": 5125,
			"count": 36,
			"type": "SCALAR"
		},
		{
			"bufferView": 12,
			"byteOffset": 0,
			"componentType": 5126,
			"count": 24,
			"max": [
				0.5,
				0.05000000074505806,
				0.5
			],
			"min": [
				-0.5,
				-0.05000000074505806,
				-0.5
			],
			"type": "VEC3"
		},
		{
			"bufferView": 13,
			"byteOffset": 0,
			"componentType": 5126,
			"count": 24,
			"type": "VEC3"
		},
		{
			"bufferView": 14,
			"byteOffset": 0,
			"componentType": 5126,
			"count": 24,
			"type": "VEC2"
		},
		{
			"bufferView": 15,
			"byteOffset": 0,
			"componentType": 5125,
			"count": 36,
			"type": "SCALAR"
		},
		{
			"bufferView": 16,
			"byteOffset": 0,
			"componentType": 5126,
			"count": 24,
			"max": [
				0.5,
				0.5,
				0.5
			],
			"min": [
				-0.5,
				-0.5,
				-0.5
			],
			"type": "VEC3"
		},
		{
			"bufferView": 17,
			"byteOffset": 0,
			"componentType": 5126,
			"count": 24,
			"type": "VEC3"
		},
		{
			"bufferView": 18,
			"byteOffset": 0,
			"componentType": 5126,
			"count": 24,
			"type": "VEC2"
		},
		{
			"bufferView": 19,
			"byteOffset": 0,
			"componentType": 5125,
			"count": 36,
			"type": "SCALAR"
		},
		{
			"bufferView": 20,
			"byteOffset": 0,
			"componentType": 5126,
			"count": 24,
			"max": [
				1.25,
				3.0,
				1.25
			],
			"min": [
				-1.25,
				-3.0,
				-1.25
			],
			"type": "VEC3"
		},
		{
			"bufferView": 21,
			"byteOffset": 0,
			"componentType": 5126,
			"count": 24,
			"type": "VEC3"
		},
		{
			"bufferView": 22,
			"byteOffset": 0,
			"componentType": 5126,
			"count": 24,
			"type": "VEC2"
		},
		{
			"bufferView": 23,
			"byteOffset": 0,
			"componentType": 5125,
			"count": 36,
			"type": "SCALAR"
		},
		{
			"bufferView": 24,
			"byteOffset": 0,
			"componentType": 5126,
			"count": 8320,
			"max": [
				1.0,
				1.0,
				1.0
			],
			"min": [
				-1.0,
				-1.0,
				-1.0
			],
			"type": "VEC3"
		},
		{
			"bufferView": 25,
			"byteOffset": 0,
			"componentType": 5126,
			"count": 8320,
			"type": "VEC3"
		},
		{
			"bufferView": 26,
			"byteOffset": 0,
			"componentType": 5126,
			"count": 8320,
			"type": "VEC2"
		},
		{
			"bufferView": 27,
			"byteOffset": 0,
			"componentType": 5125,
			"count": 24954,
			"type": "SCALAR"
		},
		{
			"bufferView": 28,
			"byteOffset": 0,
			"componentType": 5126,
			"count": 8320,
			"max": [
				1.0,
				1.0,
				1.0
			],
			"min": [
				-1.0,
				-1.0,
				-1.0
			],
			"type": "VEC3"
		},
		{
			"bufferView": 29,
			"byteOffset": 0,
			"componentType": 5126,
			"count": 8320,
			"type": "VEC3"
		},
		{
			"bufferView": 30,
			"byteOffset": 0,
			"componentType": 5126,
			"count": 8320,
			"type": "VEC2"
		},
		{
			"bufferView": 31,
			"byteOffset": 0,
			"componentType": 5125,
			"count": 24954,
			"type": "SCALAR"
		}
	],
	"asset": {
		"generator": "Gestaltor 2020.2.1 Alpha 'Zuckerwatte' (CI-38fb8ee1*)",
		"version": "2.0"
	},
	"bufferViews": [
		{
			"buffer": 0,
			"byteLength": 288,
			"byteOffset": 0,
			"byteStride": 12
		},
		{
			"buffer": 0,
			"byteLength": 288,
			"byteOffset": 288,
			"byteStride": 12
		},
		{
			"buffer": 0,
			"byteLength": 192,
			"byteOffset": 576,
			"byteStride": 8
		},
		{
			"buffer": 0,
			"byteLength": 144,
			"byteOffset": 768
		},
		{
			"buffer": 0,
			"byteLength": 288,
			"byteOffset": 912,
			"byteStride": 12
		},
		{
			"buffer": 0,
			"byteLength": 288,
			"byteOffset": 1200,
			"byteStride": 12
		},
		{
			"buffer": 0,
			"byteLength": 192,
			"byteOffset": 1488,
			"byteStride": 8
		},
		{
			"buffer": 0,
			"byteLength": 144,
			"byteOffset": 1680
		},
		{
			"buffer": 0,
			"byteLength": 288,
			"byteOffset": 1824,
			"byteStride": 12
		},
		{
			"buffer": 0,
			"byteLength": 288,
			"byteOffset": 2112,
			"byteStride": 12
		},
		{
			"buffer": 0,
			"byteLength": 192,
			"byteOffset": 2400,
			"byteStride": 8
		},
		{
			"buffer": 0,
			"byteLength": 144,
			"byteOffset": 2592
		},
		{
			"buffer": 0,
			"byteLength": 288,
			"byteOffset": 2736,
			"byteStride": 12
		},
		{
			"buffer": 0,
			"byteLength": 288,
			"byteOffset": 3024,
			"byteStride": 12
		},
		{
			"buffer": 0,
			"byteLength": 192,
			"byteOffset": 3312,
			"byteStride": 8
		},
		{
			"buffer": 0,
			"byteLength": 144,
			"byteOffset": 3504
		},
		{
			"buffer": 0,
			"byteLength": 288,
			"byteOffset": 3648,
			"byteStride": 12
		},
		{
			"buffer": 0,
			"byteLength": 288,
			"byteOffset": 3936,
			"byteStride": 12
		},
		{
			"buffer": 0,
			"byteLength": 192,
			"byteOffset": 4224,
			"byteStride": 8
		},
		{
			"buffer": 0,
			"byteLength": 144,
			"byteOffset": 4416
		},
		{
			"buffer": 0,
			"byteLength": 288,
			"byteOffset": 4560,
			"byteStride": 12
		},
		{
			"buffer": 0,
			"byteLength": 288,
			"byteOffset": 4848,
			"byteStride": 12
		},
		{
			"buffer": 0,
			"byteLength": 192,
			"byteOffset": 5136,
			"byteStride": 8
		},
		{
			"buffer": 0,
			"byteLength": 144,
			"byteOffset": 5328
		},
		{
			"buffer": 0,
			"byteLength": 99840,
			"byteOffset": 5472,
			"byteStride": 12
		},
		{
			"buffer": 0,
			"byteLength": 99840,
			"byteOffset": 105312,
			"byteStride": 12
		},
		{
			"buffer": 0,
			"byteLength": 66560,
			"byteOffset": 205152,
			"byteStride": 8
		},
		{
			"buffer": 0,
			"byteLength": 99816,
			"byteOffset": 271712
		},
		{
			"buffer": 0,
			"byteLength": 99840,
			"byteOffset": 371528,
			"byteStride": 12
		},
		{
			"buffer": 0,
			"byteLength": 99840,
			"byteOffset": 471368,
			"byteStride": 12
		},
		{
			"buffer": 0,
			"byteLength": 66560,
			"byteOffset": 571208,
			"byteStride": 8
		},
		{
			"buffer": 0,
			"byteLength": 99816,
			"byteOffset": 637768
		}
	],
	"buffers": [
		{
			"byteLength": 737584,
			"uri": "CornellBox.bin"
		}
	],
	"cameras": [
		{
			"name": "default",
			"perspective": {
				"aspectRatio": 1.77777,
				"yfov": 0.872664626,
				"zfar": 100.0,
				"znear": 0.01
			},
			"type": "perspective"
		}
	],
	"materials": [
		{
			"doubleSided": true,
			"name": "gray_wall_material",
			"pbrMetallicRoughness": {
				"metallicFactor": 0.0
			}
		},
		{
			"doubleSided": true,
			"name": "green_wall_material",
			"pbrMetallicRoughness": {
				"baseColorFactor": [
					0.0,
					1.0,
					0.0,
					1.0
				],
				"metallicFactor": 0.0
			}
		},
		{
			"doubleSided": true,
			"name": "red_wall_material",
			"pbrMetallicRoughness": {
				"baseColorFactor": [
					1.0,
					0.0,
					0.0,
					1.0
				],
				"metallicFactor": 0.0
			}
		},
		{
			"doubleSided": false,
			"emissiveFactor": [
				1.0,
				1.0,
				1.0
			],
			"name": "emissive_lamp_material",
			"pbrMetallicRoughness": {
				"metallicFactor": 0.0,
				"roughnessFactor": 0.0
			}
		},
		{
			"doubleSided": false,
			"name": "default_cube_material",
			"pbrMetallicRoughness": {
				"baseColorFactor": [
					0.5,
					0.5,
					0.5,
					1.0
				],
				"metallicFactor": 0.0
			}
		},
		{
			"doubleSided": false,
			"name": "vertical_cube_material",
			"pbrMetallicRoughness": {
				"metallicFactor": 0.0,
				"roughnessFactor": 0.5
			}
		},
		{
			"alphaMode": "OPAQUE",
			"doubleSided": false,
			"name": "rough_sphere_material",
			"pbrMetallicRoughness": {
				"baseColorFactor": [
					0.9,
					0.9,
					0.9,
					1.0
				],
				"roughnessFactor": 0.5
			}
		},
		{
			"doubleSided": false,
			"name": "mirror_sphere_material",
			"pbrMetallicRoughness": {
				"roughnessFactor": 0.0
			}
		}
	],
	"meshes": [
		{
			"name": "gray_wall",
			"primitives": [
				{
					"attributes": {
						"NORMAL": 1,
						"POSITION": 0,
						"TEXCOORD_0": 2
					},
					"indices": 3,
					"material": 0,
					"mode": 4
				}
			]
		},
		{
			"name": "green_wall",
			"primitives": [
				{
					"attributes": {
						"NORMAL": 1,
						"POSITION": 0,
						"TEXCOORD_0": 2
					},
					"indices": 3,
					"material": 1,
					"mode": 4
				}
			]
		},
		{
			"name": "red_wall",
			"primitives": [
				{
					"attributes": {
						"NORMAL": 1,
						"POSITION": 0,
						"TEXCOORD_0": 2
					},
					"indices": 3,
					"material": 2,
					"mode": 4
				}
			]
		},
		{
			"name": "emissive_lamp",
			"primitives": [
				{
					"attributes": {
						"NORMAL": 1,
						"POSITION": 0,
						"TEXCOORD_0": 2
					},
					"indices": 3,
					"material": 3,
					"mode": 4
				}
			]
		},
		{
			"name": "default_cube",
			"primitives": [
				{
					"attributes": {
						"NORMAL": 17,
						"POSITION": 16,
						"TEXCOORD_0": 18
					},
					"indices": 19,
					"material": 4,
					"mode": 4
				}
			]
		},
		{
			"name": "vertical_cube",
			"primitives": [
				{
					"attributes": {
						"NORMAL": 17,
						"POSITION": 16,
						"TEXCOORD_0": 18
					},
					"indices": 19,
					"material": 5,
					"mode": 4
				}
			]
		},
		{
			"name": "rough_sphere",
			"primitives": [
				{
					"attributes": {
						"NORMAL": 25,
						"POSITION": 24,
						"TEXCOORD_0": 26
					},
					"indices": 27,
					"material": 6,
					"mode": 4
				}
			]
		},
		{
			"name": "mirror_sphere",
			"primitives": [
				{
					"attributes": {
						"NORMAL": 25,
						"POSITION": 24,
						"TEXCOORD_0": 26
					},
					"indices": 27,
					"material": 7,
					"mode": 4
				}
			]
		}
	],
	"nodes": [
		{
			"camera": 0,
			"rotation": [
				0.0,
				0.0,
				0.0,
				1.0
			],
			"scale": [
				1.0,
				1.0,
				1.0
			],
			"translation": [
				0.0,
				0.0,
				16.0
			],
			"name": "camera"
		},
		{
			"rotation": [
				0.0,
				0.0,
				0.0,
				1.0
			],
			"scale": [
				1.0,
				1.0,
				1.0
			],
			"translation": [
				0.0,
				0.0,
				-5.0
			],
			"mesh": 0,
			"name": "back_wall"
		},
		{
			"rotation": [
				0.7071067811865476,
				0.0,
				0.0,
				0.7071067811865476
			],
			"scale": [
				1.0,
				1.0,
				1.0
			],
			"translation": [
				0.0,
				-5.0,
				0.0
			],
			"mesh": 0,
			"name": "bottom_wall"
		},
		{
			"rotation": [
				0.7071067811865476,
				0.0,
				0.0,
				0.7071067811865476
			],
			"scale": [
				1.0,
				1.0,
				1.0
			],
			"translation": [
				0.0,
				5.0,
				0.0
			],
			"mesh": 0,
			"name": "top_wall"
		},
		{
			"rotation": [
				0.0,
				-0.7071067811865476,
				0.0,
				0.7071067811865476
			],
			"scale": [
				1.0,
				1.0,
				1.0
			],
			"translation": [
				-5.0,
				0.0,
				0.0
			],
			"mesh": 1,
			"name": "green_wall"
		},
		{
			"rotation": [
				0.0,
				-0.7071067811865476,
				0.0,
				0.7071067811865476
			],
			"scale": [
				1.0,
				1.0,
				1.0
			],
			"translation": [
				5.0,
				0.0,
				0.0
			],
			"mesh": 2,
			"name": "red_wall"
		},
		{
			"rotation": [
				0.7071067811865476,
				0.0,
				0.0,
				0.7071067811865476
			],
			"scale": [
				0.25,
				0.25,
				1.0
			],
			"translation": [
				0.0,
				4.75,
				0.0
			],
			"mesh": 3,
			"name": "emissive_lamp"
		},
		{
			"rotation": [
				0.0,
				0.4617486,
				0.0,
				0.8870108
			],
			"scale": [
				2.5,
				2.5,
				2.5
			],
			"translation": [
				3.0,
				-3.5,
				1.7
			],
			"mesh": 4,
			"name": "cube"
		},
		{
			"rotation": [
				0.0,
				0.0,
				0.0,
				1.0
			],
			"scale": [
				2.5,
				6.0,
				2.5
			],
			"translation": [
				-2.5,
				-2.0,
				-2.0
			],
			"mesh": 5,
			"name": "vertical_cube"
		},
		{
			"rotation": [
				0.0,
				0.0,
				0.0,
				1.0
			],
			"scale": [
				1.0,
				1.0,
				1.0
			],
			"translation": [
				3.3,
				-1.0,
				0.0
			],
			"mesh": 6,
			"name": "right_sphere"
		},
		{
			"rotation": [
				0.0,
				0.0,
				0.0,
				1.0
			],
			"scale": [
				1.0,
				1.0,
				1.0
			],
			"translation": [
				-3.0,
				-4.0,
				3.0
			],
			"mesh": 7,
			"name": "left_sphere"
		},
		{
			"extras": {
				"scene_prefab": {
					"path": "~/Assets/Scenes/DamagedHelmet/DamagedHelmet.gltf"
				}
			},
			"name": "damaged_helmet"
		},
		{
			"rotation": [
				0.0,
				0.0,
				0.0,
				1.0
			],
			"scale": [
				1.5,
				1.5,
				1.5
			],
			"translation": [
				1.5,
				2.0,
				-2.0
			],
			"name": "damaged_helmet_spawn"
		}
	],
	"scene": 0,
	"scenes": [
		{
			"nodes": [
				0,
				1,
				2,
				3,
				4,
				5,
				6,
				7,
				8,
				9,
				10,
				11,
				12
			]
		}
	]
}