{
	"accessors": [
		{
			"bufferView": 0,
			"byteOffset": 0,
			"componentType": 5126,
			"count": 24,
			"max": [
				5.0,
				5.0,
				0.05000000074505806
			],
			"min": [
				-5.0,
				-5.0,
				-0.05000000074505806
			],
			"type": "VEC3"
		},
		{
			"bufferView": 1,
			"byteOffset": 0,
			"componentType": 5126,
			"count": 24,
			"type": "VEC3"
		},
		{
			"bufferView": 2,
			"byteOffset": 0,
			"componentType": 5126,
			"count": 24,
			"type": "VEC2"
		},
		{
			"bufferView": 3,
			"byteOffset": 0,
			"componentType": 5125,
			"count": 36,
			"type": "SCALAR"
		},
		{
			"bufferView": 4,
			"byteOffset": 0,
			"componentType": 5126,
			"count": 24,
			"max": [
				5.0,
				0.05000000074505806,
				5.0
			],
			"min": [
				-5.0,
				-0.05000000074505806,
				-5.0
			],
			"type": "VEC3"
		},
		{
			"bufferView": 5,
			"byteOffset": 0,
			"componentType": 5126,
			"count": 24,
			"type": "VEC3"
		},
		{
			"bufferView": 6,
			"byteOffset": 0,
			"componentType": 5126,
			"count": 24,
			"type": "VEC2"
		},
		{
			"bufferView": 7,
			"byteOffset": 0,
			"componentType": 5125,
			"count": 36,
			"type": "SCALAR"
		},
		{
			"bufferView": 8,
			"byteOffset": 0,
			"componentType": 5126,
			"count": 24,
			"max": [
				0.05000000074505806,
				5.0,
				5.0
			],
			"min": [
				-0.05000000074505806,
				-5.0,
				-5.0
			],
			"type": "VEC3"
		},
		{
			"bufferView": 9,
			"byteOffset": 0,
			"componentType": 5126,
			"count": 24,
			"type": "VEC3"
		},
		{
			"bufferView": 10,
			"byteOffset": 0,
			"componentType": 5126,
			"count": 24,
			"type": "VEC2"
		},
		{
			"bufferView": 11,
			"byteOffset": 0,
			"componentType": 5125,
			"count": 36,
			"type": "SCALAR"
		},
		{
			"bufferView": 12,
			"byteOffset": 0,
			"componentType": 5126,
			"count": 24,
			"max": [
				0.5,
				0.05000000074505806,
				0.5
			],
			"min": [
				-0.5,
				-0.05000000074505806,
				-0.5
			],
			"type": "VEC3"
		},
		{
			"bufferView": 13,
			"byteOffset": 0,
			"componentType": 5126,
			"count": 24,
			"type": "VEC3"
		},
		{
			"bufferView": 14,
			"byteOffset": 0,
			"componentType": 5126,
			"count": 24,
			"type": "VEC2"
		},
		{
			"bufferView": 15,
			"byteOffset": 0,
			"componentType": 5125,
			"count": 36,
			"type": "SCALAR"
		},
		{
			"bufferView": 16,
			"byteOffset": 0,
			"componentType": 5126,
			"count": 24,
			"max": [
				0.5,
				0.5,
				0.5
			],
			"min": [
				-0.5,
				-0.5,
				-0.5
			],
			"type": "VEC3"
		},
		{
			"bufferView": 17,
			"byteOffset": 0,
			"componentType": 5126,
			"count": 24,
			"type": "VEC3"
		},
		{
			"bufferView": 18,
			"byteOffset": 0,
			"componentType": 5126,
			"count": 24,
			"type": "VEC2"
		},
		{
			"bufferView": 19,
			"byteOffset": 0,
			"componentType": 5125,
			"count": 36,
			"type": "SCALAR"
		},
		{
			"bufferView": 20,
			"byteOffset": 0,
			"componentType": 5126,
			"count": 24,
			"max": [
				1.25,
				3.0,
				1.25
			],
			"min": [
				-1.25,
				-3.0,
				-1.25
			],
			"type": "VEC3"
		},
		{
			"bufferView": 21,
			"byteOffset": 0,
			"componentType": 5126,
			"count": 24,
			"type": "VEC3"
		},
		{
			"bufferView": 22,
			"byteOffset": 0,
			"componentType": 5126,
			"count": 24,
			"type": "VEC2"
		},
		{
			"bufferView": 23,
			"byteOffset": 0,
			"componentType": 5125,
			"count": 36,
			"type": "SCALAR"
		},
		{
			"bufferView": 24,
			"byteOffset": 0,
			"componentType": 5126,
			"count": 8320,
			"max": [
				1.0,
				1.0,
				1.0
			],
			"min": [
				-1.0,
				-1.0,
				-1.0
			],
			"type": "VEC3"
		},
		{
			"bufferView": 25,
			"byteOffset": 0,
			"componentType": 5126,
			"count": 8320,
			"type": "VEC3"
		},
		{
			"bufferView": 26,
			"byteOffset": 0,
			"componentType": 5126,
			"count": 8320,
			"type": "VEC2"
		},
		{
			"bufferView": 27,
			"byteOffset": 0,
			"componentType": 5125,
			"count": 24954,
			"type": "SCALAR"
		},
		{
			"bufferView": 28,
			"byteOffset": 0,
			"componentType": 5126,
			"count": 8320,
			"max": [
				1.0,
				1.0,
				1.0
			],
			"min": [
				-1.0,
				-1.0,
				-1.0
			],
			"type": "VEC3"
		},
		{
			"bufferView": 29,
			"byteOffset": 0,
			"componentType": 5126,
			"count": 8320,
			"type": "VEC3"
		},
		{
			"bufferView": 30,
			"byteOffset": 0,
			"componentType": 5126,
			"count": 8320,
			"type": "VEC2"
		},
		{
			"bufferView": 31,
			"byteOffset": 0,
			"componentType": 5125,
			"count": 24954,
			"type": "SCALAR"
		}
	],
	"asset": {
		"generator": "Gestaltor 2020.2.1 Alpha 'Zuckerwatte' (CI-38fb8ee1*)",
		"version": "2.0"
	},
	"bufferViews": [
		{
			"buffer": 0,
			"byteLength": 288,
			"byteOffset": 0,
			"byteStride": 12
		},
		{
			"buffer": 0,
			"byteLength": 288,
			"byteOffset": 288,
			"byteStride": 12
		},
		{
			"buffer": 0,
			"byteLength": 192,
			"byteOffset": 576,
			"byteStride": 8
		},
		{
			"buffer": 0,
			"byteLength": 144,
			"byteOffset": 768
		},
		{
			"buffer": 0,
			"byteLength": 288,
			"byteOffset": 912,
			"byteStride": 12
		},
		{
			"buffer": 0,
			"byteLength": 288,
			"byteOffset": 1200,
			"byteStride": 12
		},
		{
			"buffer": 0,
			"byteLength": 192,
			"byteOffset": 1488,
			"byteStride": 8
		},
		{
			"buffer": 0,
			"byteLength": 144,
			"byteOffset": 1680
		},
		{
			"buffer": 0,
			"byteLength": 288,
			"byteOffset": 1824,
			"byteStride": 12
		},
		{
			"buffer": 0,
			"byteLength": 288,
			"byteOffset": 2112,
			"byteStride": 12
		},
		{
			"buffer": 0,
			"byteLength": 192,
			"byteOffset": 2400,
			"byteStride": 8
		},
		{
			"buffer": 0,
			"byteLength": 144,
			"byteOffset": 2592
		},
		{
			"buffer": 0,
			"byteLength": 288,
			"byteOffset": 2736,
			"byteStride": 12
		},
		{
			"buffer": 0,
			"byteLength": 288,
			"byteOffset": 3024,
			"byteStride": 12
		},
		{
			"buffer": 0,
			"byteLength": 192,
			"byteOffset": 3312,
			"byteStride": 8
		},
		{
			"buffer": 0,
			"byteLength": 144,
			"byteOffset": 3504
		},
		{
			"buffer": 0,
			"byteLength": 288,
			"byteOffset": 3648,
			"byteStride": 12
		},
		{
			"buffer": 0,
			"byteLength": 288,
			"byteOffset": 3936,
			"byteStride": 12
		},
		{
			"buffer": 0,
			"byteLength": 192,
			"byteOffset": 4224,
			"byteStride": 8
		},
		{
			"buffer": 0,
			"byteLength": 144,
			"byteOffset": 4416
		},
		{
			"buffer": 0,
			"byteLength": 288,
			"byteOffset": 4560,
			"byteStride": 12
		},
		{
			"buffer": 0,
			"byteLength": 288,
			"byteOffset": 4848,
			"byteStride": 12
		},
		{
			"buffer": 0,
			"byteLength": 192,
			"byteOffset": 5136,
			"byteStride": 8
		},
		{
			"buffer": 0,
			"byteLength": 144,
			"byteOffset": 5328
		},
		{
			"buffer": 0,
			"byteLength": 99840,
			"byteOffset": 5472,
			"byteStride": 12
		},
		{
			"buffer": 0,
			"byteLength": 99840,
			"byteOffset": 105312,
			"byteStride": 12
		},
		{
			"buffer": 0,
			"byteLength": 66560,
			"byteOffset": 205152,
			"byteStride": 8
		},
		{
			"buffer": 0,
			"byteLength": 99816,
			"byteOffset": 271712
		},
		{
			"buffer": 0,
			"byteLength": 99840,
			"byteOffset": 371528,
			"byteStride": 12
		},
		{
			"buffer": 0,
			"byteLength": 99840,
			"byteOffset": 471368,
			"byteStride": 12
		},
		{
			"buffer": 0,
			"byteLength": 66560,
			"byteOffset": 571208,
			"byteStride": 8
		},
		{
			"buffer": 0,
			"byteLength": 99816,
			"byteOffset": 637768
		}
	],
	"buffers": [
		{
			"byteLength": 737584,
			"uri": "CornellBox.bin"
		}
	],
	"cameras": [
		{
			"name": "default",
			"perspective": {
				"aspectRatio": 1.77777,
				"yfov": 0.872664626,
				"zfar": 100.0,
				"znear": 0.01
			},
			"type": "perspective"
		}
	],
	"materials": [
		{
			"doubleSided": true,
			"name": "cube_instance_material",
			"pbrMetallicRoughness": {
				"metallicFactor": 0.0
			}
		},
		{
			"doubleSided": true,
			"name": "cube_instance_2_material",
			"pbrMetallicRoughness": {
				"metallicFactor": 0.0
			}
		},
		{
			"doubleSided": true,
			"name": "gltf_material_mat",
			"pbrMetallicRoughness": {
				"baseColorFactor": [
					0.0,
					1.0,
					0.0,
					1.0
				],
				"metallicFactor": 0.0
			}
		},
		{
			"doubleSided": true,
			"name": "cube_instance_5_material",
			"pbrMetallicRoughness": {
				"baseColorFactor": [
					1.0,
					0.0,
					0.0,
					1.0
				],
				"metallicFactor": 0.0
			}
		},
		{
			"doubleSided": false,
			"emissiveFactor": [
				1.0,
				1.0,
				1.0
			],
			"name": "cube_instance_8_material",
			"pbrMetallicRoughness": {
				"metallicFactor": 0.0,
				"roughnessFactor": 0.0
			}
		},
		{
			"doubleSided": false,
			"name": "cube_instance_14_material",
			"pbrMetallicRoughness": {
				"baseColorFactor": [
					0.5,
					0.5,
					0.5,
					1.0
				],
				"metallicFactor": 0.0
			}
		},
		{
			"doubleSided": false,
			"name": "cube_instance_16_material",
			"pbrMetallicRoughness": {
				"metallicFactor": 0.0,
				"roughnessFactor": 0.5
			}
		},
		{
			"alphaMode": "OPAQUE",
			"doubleSided": false,
			"name": "sphere_instance_material",
			"pbrMetallicRoughness": {
				"baseColorFactor": [
					0.949999988079071,
					0.949999988079071,
					0.949999988079071,
					1.0
				],
				"roughnessFactor": 0.5
			}
		},
		{
			"doubleSided": false,
			"name": "sphere_instance_22_material",
			"pbrMetallicRoughness": {
				"roughnessFactor": 0.0
			}
		}
	],
	"meshes": [
		{
			"name": "cube",
			"primitives": [
				{
					"attributes": {
						"NORMAL": 1,
						"POSITION": 0,
						"TEXCOORD_0": 2
					},
					"indices": 3,
					"material": 0,
					"mode": 4
				}
			]
		},
		{
			"name": "cube_1",
			"primitives": [
				{
					"attributes": {
						"NORMAL": 5,
						"POSITION": 4,
						"TEXCOORD_0": 6
					},
					"indices": 7,
					"material": 1,
					"mode": 4
				}
			]
		},
		{
			"name": "cube_4",
			"primitives": [
				{
					"attributes": {
						"NORMAL": 9,
						"POSITION": 8,
						"TEXCOORD_0": 10
					},
					"indices": 11,
					"material": 2,
					"mode": 4
				}
			]
		},
		{
			"name": "cube_4",
			"primitives": [
				{
					"attributes": {
						"NORMAL": 9,
						"POSITION": 8,
						"TEXCOORD_0": 10
					},
					"indices": 11,
					"material": 3,
					"mode": 4
				}
			]
		},
		{
			"name": "cube_7",
			"primitives": [
				{
					"attributes": {
						"NORMAL": 13,
						"POSITION": 12,
						"TEXCOORD_0": 14
					},
					"indices": 15,
					"material": 4,
					"mode": 4
				}
			]
		},
		{
			"name": "cube_13",
			"primitives": [
				{
					"attributes": {
						"NORMAL": 17,
						"POSITION": 16,
						"TEXCOORD_0": 18
					},
					"indices": 19,
					"material": 5,
					"mode": 4
				}
			]
		},
		{
			"name": "cube_15",
			"primitives": [
				{
					"attributes": {
						"NORMAL": 21,
						"POSITION": 20,
						"TEXCOORD_0": 22
					},
					"indices": 23,
					"material": 6,
					"mode": 4
				}
			]
		},
		{
			"name": "sphere",
			"primitives": [
				{
					"attributes": {
						"NORMAL": 25,
						"POSITION": 24,
						"TEXCOORD_0": 26
					},
					"indices": 27,
					"material": 7,
					"mode": 4
				}
			]
		},
		{
			"name": "sphere_21",
			"primitives": [
				{
					"attributes": {
						"NORMAL": 29,
						"POSITION": 28,
						"TEXCOORD_0": 30
					},
					"indices": 31,
					"material": 8,
					"mode": 4
				}
			]
		}
	],
	"nodes": [
		{
			"camera": 0,
			"name": "Camera",
			"rotation": [
				0.0,
				0.0,
				0.0,
				1.0
			],
			"scale": [
				1.0,
				1.0,
				1.0
			],
			"translation": [
				0.0,
				0.0,
				16.0
			]
		},
		{
			"matrix": [
				1.0,
				0.0,
				0.0,
				0.0,
				0.0,
				1.0,
				0.0,
				0.0,
				0.0,
				0.0,
				1.0,
				0.0,
				-0.0,
				-0.0,
				-5.0,
				1.0
			],
			"mesh": 0,
			"name": "cube_instance"
		},
		{
			"matrix": [
				1.0,
				0.0,
				0.0,
				0.0,
				0.0,
				1.0,
				0.0,
				0.0,
				0.0,
				0.0,
				1.0,
				0.0,
				-0.0,
				-5.0,
				-0.0,
				1.0
			],
			"mesh": 1,
			"name": "cube_instance_2"
		},
		{
			"matrix": [
				1.0,
				0.0,
				0.0,
				0.0,
				-0.0,
				1.0,
				-0.0,
				-0.0,
				0.0,
				0.0,
				1.0,
				0.0,
				0.0,
				5.0,
				0.0,
				1.0
			],
			"mesh": 1,
			"name": "cube_instance_3"
		},
		{
			"matrix": [
				1.0,
				0.0,
				0.0,
				0.0,
				0.0,
				1.0,
				0.0,
				0.0,
				0.0,
				0.0,
				1.0,
				0.0,
				-5.0,
				-0.0,
				-0.0,
				1.0
			],
			"mesh": 2,
			"name": "cube_instance_5"
		},
		{
			"matrix": [
				1.0,
				-0.0,
				-0.0,
				-0.0,
				0.0,
				1.0,
				0.0,
				0.0,
				0.0,
				0.0,
				1.0,
				0.0,
				5.0,
				0.0,
				0.0,
				1.0
			],
			"mesh": 3,
			"name": "cube_instance_6"
		},
		{
			"matrix": [
				3.0,
				0.0,
				0.0,
				0.0,
				-0.0,
				1.0000000000000022,
				-0.0,
				-0.0,
				0.0,
				0.0,
				3.0,
				0.0,
				0.0,
				4.626189558760184,
				0.0,
				1.0
			],
			"mesh": 4,
			"name": "cube_instance_8"
		},
		{
			"matrix": [
				1.4339410908776151,
				-0.0,
				-2.0478801107224793,
				-0.0,
				-3.172065784643304e-16,
				2.4999999999999996,
				-4.758098676964956e-16,
				0.0,
				2.0478801107224793,
				0.0,
				1.4339410908776151,
				0.0,
				3.0,
				-3.5,
				1.6790000000000003,
				1.0
			],
			"mesh": 5,
			"name": "cube_instance_14"
		},
		{
			"matrix": [
				0.9986295347545739,
				0.0,
				-0.05233595624294368,
				0.0,
				0.0,
				1.0,
				0.0,
				0.0,
				0.052335956242943835,
				0.0,
				0.9986295347545738,
				0.0,
				-2.5,
				-2.0,
				-2.0,
				1.0
			],
			"mesh": 6,
			"name": "cube_instance_16"
		},
		{
			"matrix": [
				1.0,
				0.0,
				0.0,
				0.0,
				0.0,
				1.0,
				0.0,
				0.0,
				0.0,
				0.0,
				1.0,
				0.0,
				3.3113,
				-1.0,
				0.0876,
				1.0
			],
			"mesh": 7,
			"name": "sphere_instance"
		},
		{
			"matrix": [
				1.0,
				0.0,
				0.0,
				0.0,
				0.0,
				1.0,
				0.0,
				0.0,
				0.0,
				0.0,
				1.0,
				0.0,
				-3.0,
				-4.0,
				3.0,
				1.0
			],
			"mesh": 8,
			"name": "sphere_instance_22"
		}
	],
	"scene": 0,
	"scenes": [
		{
			"nodes": [
				0,
				1,
				2,
				3,
				4,
				5,
				6,
				7,
				8,
				9,
				10
			]
		}
	]
}