{
	"asset":{
		"generator":"Khronos glTF Blender I/O v3.6.28",
		"version":"2.0"
	},
	"scene":0,
	"scenes":[
		{
			"name":"Scene",
			"nodes":[
				0,
				1,
				2,
				3,
				4,
				5,
				6,
				7,
				8,
				9,
				10,
				11,
				12,
				13,
				14,
				15
			]
		}
	],
	"nodes":[
		{
			"mesh":0,
			"name":"back_wall",
			"translation":[
				0,
				0,
				-5
			]
		},
		{
			"mesh":0,
			"name":"bottom_wall",
			"rotation":[
				0.70710688829422,
				0,
				0,
				0.7071066498756409
			],
			"translation":[
				0,
				-5,
				0
			]
		},
		{
			"mesh":0,
			"name":"top_wall",
			"rotation":[
				0.70710688829422,
				0,
				0,
				0.7071066498756409
			],
			"translation":[
				0,
				5,
				0
			]
		},
		{
			"mesh":1,
			"name":"green_wall",
			"rotation":[
				0,
				-0.7071068286895752,
				0,
				0.7071067094802856
			],
			"translation":[
				-5,
				0,
				0
			]
		},
		{
			"mesh":2,
			"name":"red_wall",
			"rotation":[
				0,
				-0.7071068286895752,
				0,
				0.7071067094802856
			],
			"translation":[
				5,
				0,
				0
			]
		},
		{
			"mesh":3,
			"name":"emissive_lamp",
			"rotation":[
				0.70710688829422,
				0,
				0,
				0.7071066498756409
			],
			"scale":[
				0.25,
				0.2500000298023224,
				1
			],
			"translation":[
				0,
				4.75,
				0
			]
		},
		{
			"mesh":4,
			"name":"cube",
			"rotation":[
				0,
				0.46174874901771545,
				0,
				0.8870108723640442
			],
			"scale":[
				2.500000476837158,
				2.5,
				2.500000476837158
			],
			"translation":[
				3,
				-3.5,
				1.7000000476837158
			]
		},
		{
			"mesh":5,
			"name":"vertical_cube",
			"scale":[
				2.5,
				6,
				2.5
			],
			"translation":[
				-2.5,
				-2,
				-2
			]
		},
		{
			"mesh":6,
			"name":"right_sphere",
			"translation":[
				3.299999952316284,
				-1,
				0
			]
		},
		{
			"mesh":7,
			"name":"left_sphere",
			"translation":[
				-3,
				-4,
				3
			]
		},
		{
			"extras":{
				"scenePrefab":"~/Assets/Scenes/DamagedHelmet/DamagedHelmet.gltf"
			},
			"name":"damaged_helmet"
		},
		{
			"name":"damaged_helmet_spawn",
			"scale":[
				1.5,
				1.5,
				1.5
			],
			"translation":[
				1.5,
				2,
				-2
			]
		},
		{
			"extras":{
				"scenePrefab":"~/Assets/Scenes/Cube/AnimatedCube.gltf"
			},
			"name":"_animated_cube_prefab",
			"scale":[
				1.5,
				1.5,
				1.5
			]
		},
		{
			"extras":{
				"scenePrefab":"~/Assets/Scenes/Cube/AnimatedCubes.gltf"
			},
			"name":"_animated_cubes_prefab",
			"scale":[
				1.5,
				1.5,
				1.5
			]
		},
		{
			"extras":{
				"sceneInstance":"_animated_cubes_prefab"
			},
			"name":"animated_cubes_instance",
			"scale":[
				1.5,
				1.5,
				1.5
			],
			"translation":[
				-12.116239547729492,
				-4.40779447555542,
				0.24140894412994385
			]
		},
		{
			"extras":{
				"sceneInstance":"_animated_cube_prefab"
			},
			"name":"animated_cube_instance",
			"scale":[
				1.5,
				1.5,
				1.5
			],
			"translation":[
				9.65880012512207,
				-4.4331560134887695,
				-1.9505022764205933
			]
		}
	],
	"materials":[
		{
			"doubleSided":true,
			"name":"gray_wall_material",
			"pbrMetallicRoughness":{
				"metallicFactor":0
			}
		},
		{
			"doubleSided":true,
			"name":"green_wall_material",
			"pbrMetallicRoughness":{
				"baseColorFactor":[
					0,
					1,
					0,
					1
				],
				"metallicFactor":0
			}
		},
		{
			"doubleSided":true,
			"name":"red_wall_material",
			"pbrMetallicRoughness":{
				"baseColorFactor":[
					1,
					0,
					0,
					1
				],
				"metallicFactor":0
			}
		},
		{
			"emissiveFactor":[
				1,
				1,
				1
			],
			"name":"emissive_lamp_material",
			"pbrMetallicRoughness":{
				"metallicFactor":0,
				"roughnessFactor":0
			}
		},
		{
			"name":"default_cube_material",
			"pbrMetallicRoughness":{
				"baseColorFactor":[
					0.5,
					0.5,
					0.5,
					1
				],
				"metallicFactor":0
			}
		},
		{
			"name":"vertical_cube_material",
			"pbrMetallicRoughness":{
				"metallicFactor":0,
				"roughnessFactor":0.5
			}
		},
		{
			"name":"rough_sphere_material",
			"pbrMetallicRoughness":{
				"baseColorFactor":[
					0.8999999761581421,
					0.8999999761581421,
					0.8999999761581421,
					1
				],
				"roughnessFactor":0.5
			}
		},
		{
			"name":"mirror_sphere_material",
			"pbrMetallicRoughness":{
				"roughnessFactor":0
			}
		}
	],
	"meshes":[
		{
			"name":"gray_wall",
			"primitives":[
				{
					"attributes":{
						"POSITION":0,
						"NORMAL":1,
						"TEXCOORD_0":2
					},
					"indices":3,
					"material":0
				}
			]
		},
		{
			"name":"green_wall",
			"primitives":[
				{
					"attributes":{
						"POSITION":4,
						"NORMAL":5,
						"TEXCOORD_0":6
					},
					"indices":3,
					"material":1
				}
			]
		},
		{
			"name":"red_wall",
			"primitives":[
				{
					"attributes":{
						"POSITION":7,
						"NORMAL":8,
						"TEXCOORD_0":9
					},
					"indices":3,
					"material":2
				}
			]
		},
		{
			"name":"emissive_lamp",
			"primitives":[
				{
					"attributes":{
						"POSITION":10,
						"NORMAL":11,
						"TEXCOORD_0":12
					},
					"indices":3,
					"material":3
				}
			]
		},
		{
			"name":"default_cube",
			"primitives":[
				{
					"attributes":{
						"POSITION":13,
						"NORMAL":14,
						"TEXCOORD_0":15
					},
					"indices":3,
					"material":4
				}
			]
		},
		{
			"name":"vertical_cube",
			"primitives":[
				{
					"attributes":{
						"POSITION":16,
						"NORMAL":17,
						"TEXCOORD_0":18
					},
					"indices":3,
					"material":5
				}
			]
		},
		{
			"name":"rough_sphere",
			"primitives":[
				{
					"attributes":{
						"POSITION":19,
						"NORMAL":20,
						"TEXCOORD_0":21
					},
					"indices":22,
					"material":6
				}
			]
		},
		{
			"name":"mirror_sphere",
			"primitives":[
				{
					"attributes":{
						"POSITION":23,
						"NORMAL":24,
						"TEXCOORD_0":25
					},
					"indices":22,
					"material":7
				}
			]
		}
	],
	"accessors":[
		{
			"bufferView":0,
			"componentType":5126,
			"count":24,
			"max":[
				5,
				5,
				0.05000000074505806
			],
			"min":[
				-5,
				-5,
				-0.05000000074505806
			],
			"type":"VEC3"
		},
		{
			"bufferView":1,
			"componentType":5126,
			"count":24,
			"type":"VEC3"
		},
		{
			"bufferView":2,
			"componentType":5126,
			"count":24,
			"type":"VEC2"
		},
		{
			"bufferView":3,
			"componentType":5123,
			"count":36,
			"type":"SCALAR"
		},
		{
			"bufferView":4,
			"componentType":5126,
			"count":24,
			"max":[
				5,
				5,
				0.05000000074505806
			],
			"min":[
				-5,
				-5,
				-0.05000000074505806
			],
			"type":"VEC3"
		},
		{
			"bufferView":5,
			"componentType":5126,
			"count":24,
			"type":"VEC3"
		},
		{
			"bufferView":6,
			"componentType":5126,
			"count":24,
			"type":"VEC2"
		},
		{
			"bufferView":7,
			"componentType":5126,
			"count":24,
			"max":[
				5,
				5,
				0.05000000074505806
			],
			"min":[
				-5,
				-5,
				-0.05000000074505806
			],
			"type":"VEC3"
		},
		{
			"bufferView":8,
			"componentType":5126,
			"count":24,
			"type":"VEC3"
		},
		{
			"bufferView":9,
			"componentType":5126,
			"count":24,
			"type":"VEC2"
		},
		{
			"bufferView":10,
			"componentType":5126,
			"count":24,
			"max":[
				5,
				5,
				0.05000000074505806
			],
			"min":[
				-5,
				-5,
				-0.05000000074505806
			],
			"type":"VEC3"
		},
		{
			"bufferView":11,
			"componentType":5126,
			"count":24,
			"type":"VEC3"
		},
		{
			"bufferView":12,
			"componentType":5126,
			"count":24,
			"type":"VEC2"
		},
		{
			"bufferView":13,
			"componentType":5126,
			"count":24,
			"max":[
				0.5,
				0.5,
				0.5
			],
			"min":[
				-0.5,
				-0.5,
				-0.5
			],
			"type":"VEC3"
		},
		{
			"bufferView":14,
			"componentType":5126,
			"count":24,
			"type":"VEC3"
		},
		{
			"bufferView":15,
			"componentType":5126,
			"count":24,
			"type":"VEC2"
		},
		{
			"bufferView":16,
			"componentType":5126,
			"count":24,
			"max":[
				0.5,
				0.5,
				0.5
			],
			"min":[
				-0.5,
				-0.5,
				-0.5
			],
			"type":"VEC3"
		},
		{
			"bufferView":17,
			"componentType":5126,
			"count":24,
			"type":"VEC3"
		},
		{
			"bufferView":18,
			"componentType":5126,
			"count":24,
			"type":"VEC2"
		},
		{
			"bufferView":19,
			"componentType":5126,
			"count":8320,
			"max":[
				1,
				1,
				1
			],
			"min":[
				-1,
				-1,
				-1
			],
			"type":"VEC3"
		},
		{
			"bufferView":20,
			"componentType":5126,
			"count":8320,
			"type":"VEC3"
		},
		{
			"bufferView":21,
			"componentType":5126,
			"count":8320,
			"type":"VEC2"
		},
		{
			"bufferView":22,
			"componentType":5123,
			"count":24954,
			"type":"SCALAR"
		},
		{
			"bufferView":23,
			"componentType":5126,
			"count":8320,
			"max":[
				1,
				1,
				1
			],
			"min":[
				-1,
				-1,
				-1
			],
			"type":"VEC3"
		},
		{
			"bufferView":24,
			"componentType":5126,
			"count":8320,
			"type":"VEC3"
		},
		{
			"bufferView":25,
			"componentType":5126,
			"count":8320,
			"type":"VEC2"
		}
	],
	"bufferViews":[
		{
			"buffer":0,
			"byteLength":288,
			"byteOffset":0,
			"target":34962
		},
		{
			"buffer":0,
			"byteLength":288,
			"byteOffset":288,
			"target":34962
		},
		{
			"buffer":0,
			"byteLength":192,
			"byteOffset":576,
			"target":34962
		},
		{
			"buffer":0,
			"byteLength":72,
			"byteOffset":768,
			"target":34963
		},
		{
			"buffer":0,
			"byteLength":288,
			"byteOffset":840,
			"target":34962
		},
		{
			"buffer":0,
			"byteLength":288,
			"byteOffset":1128,
			"target":34962
		},
		{
			"buffer":0,
			"byteLength":192,
			"byteOffset":1416,
			"target":34962
		},
		{
			"buffer":0,
			"byteLength":288,
			"byteOffset":1608,
			"target":34962
		},
		{
			"buffer":0,
			"byteLength":288,
			"byteOffset":1896,
			"target":34962
		},
		{
			"buffer":0,
			"byteLength":192,
			"byteOffset":2184,
			"target":34962
		},
		{
			"buffer":0,
			"byteLength":288,
			"byteOffset":2376,
			"target":34962
		},
		{
			"buffer":0,
			"byteLength":288,
			"byteOffset":2664,
			"target":34962
		},
		{
			"buffer":0,
			"byteLength":192,
			"byteOffset":2952,
			"target":34962
		},
		{
			"buffer":0,
			"byteLength":288,
			"byteOffset":3144,
			"target":34962
		},
		{
			"buffer":0,
			"byteLength":288,
			"byteOffset":3432,
			"target":34962
		},
		{
			"buffer":0,
			"byteLength":192,
			"byteOffset":3720,
			"target":34962
		},
		{
			"buffer":0,
			"byteLength":288,
			"byteOffset":3912,
			"target":34962
		},
		{
			"buffer":0,
			"byteLength":288,
			"byteOffset":4200,
			"target":34962
		},
		{
			"buffer":0,
			"byteLength":192,
			"byteOffset":4488,
			"target":34962
		},
		{
			"buffer":0,
			"byteLength":99840,
			"byteOffset":4680,
			"target":34962
		},
		{
			"buffer":0,
			"byteLength":99840,
			"byteOffset":104520,
			"target":34962
		},
		{
			"buffer":0,
			"byteLength":66560,
			"byteOffset":204360,
			"target":34962
		},
		{
			"buffer":0,
			"byteLength":49908,
			"byteOffset":270920,
			"target":34963
		},
		{
			"buffer":0,
			"byteLength":99840,
			"byteOffset":320828,
			"target":34962
		},
		{
			"buffer":0,
			"byteLength":99840,
			"byteOffset":420668,
			"target":34962
		},
		{
			"buffer":0,
			"byteLength":66560,
			"byteOffset":520508,
			"target":34962
		}
	],
	"buffers":[
		{
			"byteLength":587068,
			"uri":"CornellBox.bin"
		}
	]
}
